# File created by Blade
# Date/Time:  Fri Jan 16 19:49:56 2015
# Frame Rate: 120.000 fps
#------------------------------------------------------
:FULLY-SPECIFIED
:DEGREES
535
root 20.277713 35.111496 -12.446231 -105.310498 1.088817 -178.285725
Spine 71.432663 0.884854 -8.757484
Head -13.427781 4.037700 -1.835113
LeftShoulder -21.048777 22.402618 11.203150
LeftArm -59.547031 10.063513 -99.017328
LeftForeArm 21.907911 -0.000000 -0.990169
LeftHand -1.566943 -0.000000 -42.171214
LeftHandThumb1 -26.253704 0.000000 33.147579
RightShoulder -25.976272 -53.041785 -5.420510
RightArm -22.232759 -22.969959 83.604955
RightForeArm -38.008308 -0.000000 6.996427
RightHand 4.546901 -0.000000 49.071291
RightHandThumb1 -24.326973 -0.000000 -32.862282
LeftUpLeg -79.961166 6.631686 3.547280
LeftLeg -5.523967 -0.000000 0.000000
LeftFoot -6.735662 32.431283 -8.564599
LeftToeBase 27.320314 -0.000000 -0.000000
RightUpLeg -79.786735 -2.205078 -5.534805
RightLeg -4.968996 -0.000000 0.000000
RightFoot -6.700837 -19.891486 12.596371
RightToeBase 26.870703 -0.000000 -0.000000
536
root 20.278580 35.112301 -12.442468 -105.467519 1.100131 -178.279461
Spine 71.394196 0.898307 -8.724480
Head -13.555264 4.026631 -1.830804
LeftShoulder -21.025787 22.283997 11.210008
LeftArm -59.540119 10.048550 -99.000865
LeftForeArm 21.896343 0.000000 -0.936429
LeftHand -1.613682 -0.000000 -42.109496
LeftHandThumb1 -26.253704 0.000000 33.147579
RightShoulder -26.001572 -52.908124 -5.433471
RightArm -22.272693 -22.942175 83.656498
RightForeArm -37.980127 -0.000000 6.980118
RightHand 4.586966 0.000000 49.031783
RightHandThumb1 -24.326973 -0.000000 -32.862282
LeftUpLeg -79.805416 6.628516 3.592308
LeftLeg -5.519343 -0.000000 0.000000
LeftFoot -6.736116 32.456196 -8.589528
LeftToeBase 27.290462 -0.000000 -0.000000
RightUpLeg -79.660148 -2.178644 -5.561041
RightLeg -4.928339 -0.000000 0.000000
RightFoot -6.705765 -19.896266 12.603343
RightToeBase 26.886636 -0.000000 -0.000000
537
root 20.278779 35.113007 -12.438650 -105.641377 1.092895 -178.280756
Spine 71.369788 0.867940 -8.721814
Head -13.674206 4.043212 -1.844175
LeftShoulder -21.060406 22.147349 11.222662
LeftArm -59.529250 10.060665 -99.048184
LeftForeArm 21.938980 -0.000000 -0.941905
LeftHand -1.590569 -0.000000 -42.133940
LeftHandThumb1 -26.253704 0.000000 33.147579
RightShoulder -25.985259 -52.829791 -5.484313
RightArm -22.225329 -22.955524 83.703796
RightForeArm -37.720815 -0.000000 6.944498
RightHand 4.453363 -0.000000 48.925920
RightHandThumb1 -24.326973 -0.000000 -32.862282
LeftUpLeg -79.639893 6.614226 3.653794
LeftLeg -5.504769 -0.000000 0.000000
LeftFoot -6.772988 32.472392 -8.649929
LeftToeBase 27.360796 -0.000000 -0.000000
RightUpLeg -79.499241 -2.161403 -5.562594
RightLeg -4.916246 -0.000000 0.000000
RightFoot -6.699090 -19.920602 12.599032
RightToeBase 26.831299 -0.000000 -0.000000
538
root 20.277039 35.113634 -12.434646 -105.807123 1.103390 -178.284247
Spine 71.328286 0.853481 -8.704361
Head -13.796453 4.069518 -1.848128
LeftShoulder -21.082112 21.997931 11.237399
LeftArm -59.612765 10.295381 -99.415118
LeftForeArm 21.579905 -0.000000 -0.863799
LeftHand -1.608487 -0.000000 -42.219343
LeftHandThumb1 -26.253704 0.000000 33.147579
RightShoulder -26.058103 -52.767621 -5.451186
RightArm -22.145625 -22.990255 83.727862
RightForeArm -37.667132 -0.000000 6.934910
RightHand 4.446896 0.000000 48.905184
RightHandThumb1 -24.326973 -0.000000 -32.862282
LeftUpLeg -79.477797 6.594149 3.714087
LeftLeg -5.488594 -0.000000 0.000000
LeftFoot -6.751384 32.499409 -8.648615
LeftToeBase 27.288378 -0.000000 -0.000000
RightUpLeg -79.346137 -2.146461 -5.592971
RightLeg -4.909399 -0.000000 0.000000
RightFoot -6.688258 -19.932082 12.625302
RightToeBase 26.870618 -0.000000 -0.000000
539
root 20.274682 35.115136 -12.431564 -105.986552 1.103293 -178.296142
Spine 71.294562 0.814156 -8.716010
Head -13.903603 4.111708 -1.854588
LeftShoulder -21.096699 21.892521 11.236059
LeftArm -59.572450 10.297241 -99.495135
LeftForeArm 21.561942 0.000000 -0.851649
LeftHand -1.644845 -0.000000 -42.182146
LeftHandThumb1 -26.253704 0.000000 33.147579
RightShoulder -25.952634 -52.564245 -5.601963
RightArm -22.231174 -23.023743 83.812498
RightForeArm -37.716327 -0.000000 6.955582
RightHand 4.549848 -0.000000 48.929032
RightHandThumb1 -24.326973 -0.000000 -32.862282
LeftUpLeg -79.313937 6.565589 3.757654
LeftLeg -5.461918 -0.000000 0.000000
LeftFoot -6.772350 32.513766 -8.705990
LeftToeBase 27.251950 -0.000000 -0.000000
RightUpLeg -79.173007 -2.139094 -5.638852
RightLeg -4.903344 -0.000000 0.000000
RightFoot -6.691159 -19.962150 12.638722
RightToeBase 26.882567 -0.000000 -0.000000
540
root 20.272579 35.115962 -12.429787 -106.163981 1.113466 -178.300456
Spine 71.281330 0.775929 -8.740851
Head -14.106345 4.139581 -1.891317
LeftShoulder -21.173937 21.717913 11.197451
LeftArm -59.540486 10.297324 -99.452305
LeftForeArm 21.646453 -0.000000 -0.873825
LeftHand -1.670221 -0.000000 -42.064460
LeftHandThumb1 -26.253704 0.000000 33.147579
RightShoulder -25.994434 -52.478840 -5.519361
RightArm -22.160012 -22.987174 83.788974
RightForeArm -37.642345 0.000000 7.020745
RightHand 4.453376 0.000000 48.872042
RightHandThumb1 -24.326973 -0.000000 -32.862282
LeftUpLeg -79.142550 6.543448 3.801741
LeftLeg -5.446363 -0.000000 0.000000
LeftFoot -6.772248 32.550098 -8.718746
LeftToeBase 27.193104 -0.000000 -0.000000
RightUpLeg -79.000789 -2.122620 -5.657489
RightLeg -4.903925 -0.000000 0.000000
RightFoot -6.678491 -19.984390 12.641900
RightToeBase 26.865327 -0.000000 -0.000000
541
root 20.270555 35.116517 -12.425111 -106.350418 1.130657 -178.313164
Spine 71.233779 0.758982 -8.747262
Head -14.169779 4.167760 -1.897038
LeftShoulder -21.156001 21.612218 11.254939
LeftArm -59.444064 10.201812 -99.372766
LeftForeArm 21.824815 -0.000000 -0.920852
LeftHand -1.704926 -0.000000 -42.041901
LeftHandThumb1 -26.253704 0.000000 33.147579
RightShoulder -26.035983 -52.433250 -5.491687
RightArm -22.056362 -23.071002 83.828328
RightForeArm -37.656766 0.000000 7.022037
RightHand 4.529185 -0.000000 48.869665
RightHandThumb1 -24.326973 -0.000000 -32.862282
LeftUpLeg -78.971234 6.517311 3.838368
LeftLeg -5.422440 -0.000000 0.000000
LeftFoot -6.758833 32.569303 -8.719163
LeftToeBase 27.217302 -0.000000 -0.000000
RightUpLeg -78.833093 -2.110101 -5.710943
RightLeg -4.883986 -0.000000 0.000000
RightFoot -6.694806 -20.027386 12.597675
RightToeBase 26.992861 -0.000000 -0.000000
542
root 20.268166 35.116864 -12.421848 -106.512922 1.140456 -178.321706
Spine 71.182678 0.720851 -8.767595
Head -14.330482 4.184150 -1.904367
LeftShoulder -21.189377 21.477732 11.222190
LeftArm -59.369443 10.156412 -99.320172
LeftForeArm 21.878432 -0.000000 -0.926402
LeftHand -1.674997 0.000000 -42.037244
LeftHandThumb1 -26.253704 0.000000 33.147579
RightShoulder -25.986235 -52.212426 -5.544586
RightArm -22.125281 -23.151684 83.906885
RightForeArm -37.419847 -0.000000 7.043135
RightHand 4.426837 0.000000 48.852453
RightHandThumb1 -24.326973 -0.000000 -32.862282
LeftUpLeg -78.832833 6.496827 3.841477
LeftLeg -5.391162 -0.000000 0.000000
LeftFoot -6.765143 32.568967 -8.732386
LeftToeBase 27.206192 -0.000000 -0.000000
RightUpLeg -78.695155 -2.100316 -5.718078
RightLeg -4.853197 -0.000000 0.000000
RightFoot -6.707909 -20.031721 12.608901
RightToeBase 26.956901 -0.000000 -0.000000
543
root 20.263220 35.117847 -12.418372 -106.694430 1.174648 -178.338755
Spine 71.151913 0.697991 -8.791620
Head -14.453210 4.199481 -1.917196
LeftShoulder -21.207945 21.342381 11.268779
LeftArm -59.309479 10.165568 -99.367172
LeftForeArm 21.858836 0.000000 -0.934009
LeftHand -1.633376 -0.000000 -42.064849
LeftHandThumb1 -26.253704 0.000000 33.147579
RightShoulder -26.023220 -52.054410 -5.481567
RightArm -22.119212 -23.166622 83.922973
RightForeArm -37.277562 -0.000000 7.064175
RightHand 4.397156 -0.000000 48.843209
RightHandThumb1 -24.326973 -0.000000 -32.862282
LeftUpLeg -78.653108 6.461689 3.849300
LeftLeg -5.392874 -0.000000 0.000000
LeftFoot -6.755255 32.616305 -8.747522
LeftToeBase 27.176483 -0.000000 -0.000000
RightUpLeg -78.547181 -2.094781 -5.764256
RightLeg -4.808906 -0.000000 0.000000
RightFoot -6.721630 -20.045279 12.618883
RightToeBase 26.993165 -0.000000 -0.000000
544
root 20.258186 35.118148 -12.413900 -106.857605 1.190885 -178.346137
Spine 71.074439 0.681864 -8.792273
Head -14.497060 4.218059 -1.892203
LeftShoulder -21.165351 21.171826 11.323785
LeftArm -59.311020 10.069421 -99.362060
LeftForeArm 21.850417 -0.000000 -0.914501
LeftHand -1.643184 -0.000000 -41.970630
LeftHandThumb1 -26.253704 0.000000 33.147579
RightShoulder -25.965276 -51.919209 -5.569137
RightArm -22.067488 -23.184250 84.003183
RightForeArm -37.457630 -0.000000 7.011429
RightHand 4.583782 0.000000 48.833972
RightHandThumb1 -24.326973 -0.000000 -32.862282
LeftUpLeg -78.498198 6.438000 3.851114
LeftLeg -5.394447 -0.000000 0.000000
LeftFoot -6.755469 32.634247 -8.754135
LeftToeBase 27.182349 -0.000000 -0.000000
RightUpLeg -78.421811 -2.089451 -5.761995
RightLeg -4.756659 -0.000000 0.000000
RightFoot -6.743390 -20.039881 12.607830
RightToeBase 27.030342 -0.000000 -0.000000
